# xmcd
#
# Track frame offsets: 
#        150
#        17392
#        29202
#        45420
#        61625
#        77590
#        90072
#        106767
#        124452
#        137767
#        149770
#        162835
#
# Disc length: 2390 seconds
#
# Revision: 5
# Processed by: cddbd v1.5.2PL0 Copyright (c) Steve Scherf et al.
# Submitted via: ExactAudioCopyFreeDBPlugin 1.0
#
DISCID=9209540c
DTITLE=Linda Feller - Du bist das Salz in meiner Suppe
DYEAR=1994
DGENRE=Country
TTITLE0=Du bist das Salz in meiner Suppe
TTITLE1=Ich kann ohne dich nicht Leben
TTITLE2=Mitten ins Herz
TTITLE3=Engel lieben meist die falschen
TTITLE4=Spiel mir noch einmal das Lied
TTITLE5=Noch eine Nacht
TTITLE6=Das soll alles jetzt vorbei sein
TTITLE7=Es fällt mir schwer dir zu glauben
TTITLE8=Ich weiss genau was ich will
TTITLE9=Es gibt Männer,so viel Männer
TTITLE10=Zwei Fäuste und ein Whisky
TTITLE11=Warum kann ich nicht vergessen
EXTD=
EXTT0=
EXTT1=
EXTT2=
EXTT3=
EXTT4=
EXTT5=
EXTT6=
EXTT7=
EXTT8=
EXTT9=
EXTT10=
EXTT11=
PLAYORDER=
